<svg xmlns="http://www.w3.org/2000/svg" xmlns:xlink="http://www.w3.org/1999/xlink" width="80" zoomAndPan="magnify" viewBox="0 0 60 30.000001" height="40" preserveAspectRatio="xMidYMid meet" version="1.0"><defs><g/><clipPath id="2c2a5758f5"><path d="M 1 8 L 13 8 L 13 21 L 1 21 Z M 1 8 " clip-rule="nonzero"/></clipPath><clipPath id="07d50b3058"><path d="M 2.808594 20.496094 L 0.972656 10.363281 L 11.167969 8.515625 L 13.003906 18.652344 Z M 2.808594 20.496094 " clip-rule="nonzero"/></clipPath><clipPath id="867923fb92"><path d="M 5.601562 9.53125 L 3.53125 9.902344 C 2.117188 10.160156 1.179688 11.511719 1.4375 12.925781 C 1.65625 14.140625 2.695312 15.03125 3.925781 15.0625 C 2.785156 15.527344 2.125 16.726562 2.34375 17.9375 C 2.601562 19.351562 3.953125 20.289062 5.367188 20.035156 L 8.355469 19.492188 L 8.355469 19.488281 L 10.421875 19.113281 C 11.835938 18.859375 12.777344 17.503906 12.519531 16.09375 C 12.300781 14.882812 11.261719 13.988281 10.027344 13.957031 C 11.171875 13.492188 11.832031 12.292969 11.613281 11.078125 C 11.355469 9.667969 10.003906 8.726562 8.589844 8.984375 L 5.601562 9.523438 Z M 5.601562 9.53125 " clip-rule="nonzero"/></clipPath></defs><g fill="#ffffff" fill-opacity="1"><g transform="translate(17.477352, 16.48535)"><g><path d="M 0.421875 0 L 0.421875 -4.890625 L 1.890625 -4.890625 C 2.265625 -4.890625 2.601562 -4.835938 2.90625 -4.734375 C 3.21875 -4.628906 3.488281 -4.472656 3.71875 -4.265625 C 3.945312 -4.054688 4.125 -3.800781 4.25 -3.5 C 4.382812 -3.195312 4.453125 -2.847656 4.453125 -2.453125 C 4.453125 -2.085938 4.394531 -1.753906 4.28125 -1.453125 C 4.164062 -1.148438 4 -0.890625 3.78125 -0.671875 C 3.570312 -0.453125 3.304688 -0.285156 2.984375 -0.171875 C 2.671875 -0.0546875 2.3125 0 1.90625 0 Z M 1.484375 -0.96875 L 1.875 -0.96875 C 2.363281 -0.96875 2.738281 -1.09375 3 -1.34375 C 3.257812 -1.59375 3.390625 -1.957031 3.390625 -2.4375 C 3.390625 -2.75 3.332031 -3.015625 3.21875 -3.234375 C 3.113281 -3.453125 2.945312 -3.617188 2.71875 -3.734375 C 2.5 -3.859375 2.21875 -3.921875 1.875 -3.921875 L 1.484375 -3.921875 Z M 1.484375 -0.96875 "/></g></g><g transform="translate(22.140785, 16.48535)"><g><path d="M 0.421875 0 L 0.421875 -4.890625 L 3.34375 -4.890625 L 3.34375 -3.953125 L 1.484375 -3.953125 L 1.484375 -2.921875 L 3.140625 -2.921875 L 3.140625 -2.0625 L 1.484375 -2.0625 L 1.484375 -0.9375 L 3.375 -0.9375 L 3.375 0 Z M 0.421875 0 "/></g></g><g transform="translate(25.749738, 16.48535)"><g><path d="M 1.375 0 L 1.375 -3.953125 L 0.09375 -3.953125 L 0.09375 -4.890625 L 3.6875 -4.890625 L 3.6875 -3.953125 L 2.421875 -3.953125 L 2.421875 0 Z M 1.375 0 "/></g></g><g transform="translate(29.525356, 16.48535)"><g><path d="M 2.8125 0.125 C 2.519531 0.125 2.242188 0.0820312 1.984375 0 C 1.722656 -0.0820312 1.484375 -0.203125 1.265625 -0.359375 C 1.046875 -0.515625 0.859375 -0.695312 0.703125 -0.90625 C 0.546875 -1.125 0.425781 -1.363281 0.34375 -1.625 C 0.257812 -1.882812 0.21875 -2.160156 0.21875 -2.453125 C 0.21875 -2.742188 0.257812 -3.019531 0.34375 -3.28125 C 0.425781 -3.539062 0.546875 -3.773438 0.703125 -3.984375 C 0.859375 -4.191406 1.046875 -4.375 1.265625 -4.53125 C 1.484375 -4.6875 1.722656 -4.804688 1.984375 -4.890625 C 2.242188 -4.984375 2.519531 -5.03125 2.8125 -5.03125 C 3.101562 -5.03125 3.378906 -4.984375 3.640625 -4.890625 C 3.898438 -4.804688 4.132812 -4.6875 4.34375 -4.53125 C 4.5625 -4.375 4.75 -4.191406 4.90625 -3.984375 C 5.0625 -3.773438 5.179688 -3.539062 5.265625 -3.28125 C 5.359375 -3.019531 5.40625 -2.742188 5.40625 -2.453125 C 5.40625 -2.160156 5.359375 -1.882812 5.265625 -1.625 C 5.179688 -1.363281 5.0625 -1.125 4.90625 -0.90625 C 4.75 -0.695312 4.5625 -0.515625 4.34375 -0.359375 C 4.132812 -0.203125 3.898438 -0.0820312 3.640625 0 C 3.378906 0.0820312 3.101562 0.125 2.8125 0.125 Z M 2.8125 -0.84375 C 3.03125 -0.84375 3.226562 -0.882812 3.40625 -0.96875 C 3.59375 -1.050781 3.757812 -1.164062 3.90625 -1.3125 C 4.050781 -1.457031 4.160156 -1.625 4.234375 -1.8125 C 4.316406 -2.007812 4.359375 -2.222656 4.359375 -2.453125 C 4.359375 -2.679688 4.316406 -2.890625 4.234375 -3.078125 C 4.160156 -3.273438 4.050781 -3.445312 3.90625 -3.59375 C 3.757812 -3.738281 3.59375 -3.851562 3.40625 -3.9375 C 3.226562 -4.019531 3.03125 -4.0625 2.8125 -4.0625 C 2.59375 -4.0625 2.390625 -4.019531 2.203125 -3.9375 C 2.015625 -3.851562 1.847656 -3.738281 1.703125 -3.59375 C 1.566406 -3.445312 1.457031 -3.273438 1.375 -3.078125 C 1.300781 -2.890625 1.265625 -2.679688 1.265625 -2.453125 C 1.265625 -2.222656 1.300781 -2.007812 1.375 -1.8125 C 1.457031 -1.625 1.566406 -1.457031 1.703125 -1.3125 C 1.847656 -1.164062 2.015625 -1.050781 2.203125 -0.96875 C 2.390625 -0.882812 2.59375 -0.84375 2.8125 -0.84375 Z M 2.8125 -0.84375 "/></g></g><g transform="translate(35.147117, 16.48535)"><g><path d="M 0.078125 0 L 1.703125 -2.53125 L 0.203125 -4.890625 L 1.453125 -4.890625 L 2.3125 -3.46875 L 2.375 -3.296875 L 2.4375 -3.46875 L 3.296875 -4.890625 L 4.5 -4.890625 L 3 -2.53125 L 4.640625 0 L 3.390625 0 L 2.421875 -1.5625 L 2.328125 -1.796875 L 2.234375 -1.5625 L 1.28125 0 Z M 0.078125 0 "/></g></g><g transform="translate(39.849011, 16.48535)"><g/></g><g transform="translate(41.672718, 16.48535)"><g><path d="M 0.421875 0 L 0.421875 -4.890625 L 3.296875 -4.890625 L 3.296875 -3.953125 L 1.484375 -3.953125 L 1.484375 -2.90625 L 3.078125 -2.90625 L 3.078125 -2.03125 L 1.484375 -2.03125 L 1.484375 0 Z M 0.421875 0 "/></g></g><g transform="translate(45.1118, 16.48535)"><g><path d="M 0.421875 0 L 0.421875 -4.890625 L 1.484375 -4.890625 L 1.484375 0 Z M 0.421875 0 "/></g></g><g transform="translate(47.01884, 16.48535)"><g><path d="M 1.375 0 L 1.375 -3.953125 L 0.09375 -3.953125 L 0.09375 -4.890625 L 3.6875 -4.890625 L 3.6875 -3.953125 L 2.421875 -3.953125 L 2.421875 0 Z M 1.375 0 "/></g></g></g><g clip-path="url(#2c2a5758f5)"><g clip-path="url(#07d50b3058)"><g clip-path="url(#867923fb92)"><path fill="#ffffff" d="M 2.808594 20.496094 L 0.972656 10.363281 L 11.148438 8.519531 L 12.980469 18.65625 Z M 2.808594 20.496094 " fill-opacity="1" fill-rule="nonzero"/></g></g></g></svg>